<?xml version="1.0" encoding="UTF-8" standalone="no"?>
<!-- Created with Inkscape (http://www.inkscape.org/) -->

<svg
   xmlns:dc="http://purl.org/dc/elements/1.1/"
   xmlns:cc="http://creativecommons.org/ns#"
   xmlns:rdf="http://www.w3.org/1999/02/22-rdf-syntax-ns#"
   xmlns:svg="http://www.w3.org/2000/svg"
   xmlns="http://www.w3.org/2000/svg"
   xmlns:sodipodi="http://sodipodi.sourceforge.net/DTD/sodipodi-0.dtd"
   xmlns:inkscape="http://www.inkscape.org/namespaces/inkscape"
   width="744.09448819"
   height="1052.3622047"
   id="svg2"
   version="1.1"
   inkscape:version="0.48.5 r10040"
   sodipodi:docname="logoplain.svg">
  <defs
     id="defs4" />
  <sodipodi:namedview
     id="base"
     pagecolor="#ffffff"
     bordercolor="#666666"
     borderopacity="1.0"
     inkscape:pageopacity="0.0"
     inkscape:pageshadow="2"
     inkscape:zoom="0.9899495"
     inkscape:cx="370.07644"
     inkscape:cy="717.14091"
     inkscape:document-units="px"
     inkscape:current-layer="layer1"
     showgrid="false"
     inkscape:window-width="1190"
     inkscape:window-height="703"
     inkscape:window-x="108"
     inkscape:window-y="107"
     inkscape:window-maximized="0"
     inkscape:snap-midpoints="false"
     inkscape:snap-object-midpoints="false" />
  <metadata
     id="metadata7">
    <rdf:RDF>
      <cc:Work
         rdf:about="">
        <dc:format>image/svg+xml</dc:format>
        <dc:type
           rdf:resource="http://purl.org/dc/dcmitype/StillImage" />
        <dc:title></dc:title>
      </cc:Work>
    </rdf:RDF>
  </metadata>
  <g
     inkscape:label="Layer 1"
     inkscape:groupmode="layer"
     id="layer1">
    <rect
       style="fill:#ffffff;fill-opacity:1;stroke:none"
       id="rect2999"
       width="624.27429"
       height="624.27429"
       x="62.471653"
       y="56.724995" />
    <path
       sodipodi:type="arc"
       style="fill:#b955d3;fill-opacity:1;fill-rule:evenodd;stroke:none"
       id="path4932"
       sodipodi:cx="385.71429"
       sodipodi:cy="432.36218"
       sodipodi:rx="157.14285"
       sodipodi:ry="157.14285"
       d="m 542.85715,432.36218 a 157.14285,157.14285 0 1 1 -314.28571,0 157.14285,157.14285 0 1 1 314.28571,0 z"
       transform="matrix(1.6860924,0,0,1.6860924,-275.74114,-360.14045)" />
    <path
       sodipodi:type="arc"
       style="fill:#ffffff;fill-opacity:1;stroke:none"
       id="path5444"
       sodipodi:cx="246.47722"
       sodipodi:cy="385.15643"
       sodipodi:rx="41.416256"
       sodipodi:ry="40.911179"
       d="m 287.89347,385.15643 a 41.416256,40.911179 0 1 1 -82.83251,0 41.416256,40.911179 0 1 1 82.83251,0 z"
       transform="matrix(5.1179394,0,0,5.181124,-886.84667,-1626.6811)" />
    <path
       transform="matrix(0.16860922,0,0,0.16860922,309.57381,295.96189)"
       d="m 542.85715,432.36218 a 157.14285,157.14285 0 1 1 -314.28571,0 157.14285,157.14285 0 1 1 314.28571,0 z"
       sodipodi:ry="157.14285"
       sodipodi:rx="157.14285"
       sodipodi:cy="432.36218"
       sodipodi:cx="385.71429"
       id="path5450"
       style="fill:#b955d3;fill-opacity:1;fill-rule:evenodd;stroke:none"
       sodipodi:type="arc" />
    <path
       style="fill:#b955d3;fill-opacity:1;stroke:none"
       d="m 135.35371,352.67218 29.9069,0 14.95346,8.09498 149.53441,0 14.95345,-8.09498 59.81375,0 14.95345,8.09498 149.53446,0 14.95345,-8.09498 29.90685,0 0,32.37991 -29.90685,0 -14.95345,-8.09498 -149.53446,0 -14.95345,8.09498 -59.81375,0 -14.95345,-8.09498 -149.53441,0 -14.95346,8.09498 -29.9069,0 z"
       id="path8064"
       inkscape:connector-curvature="0"
       sodipodi:nodetypes="ccccccccccccccccccccc" />
    <path
       sodipodi:nodetypes="ccccccccccccccccccccc"
       inkscape:connector-curvature="0"
       id="path8071"
       d="m 159.31284,474.46884 25.90012,-14.95345 16.99754,-0.46632 129.50061,-74.76721 8.90258,-14.48718 51.80027,-29.9069 16.99755,-0.46632 129.5006,-74.76721 8.90262,-14.48718 25.90006,-14.95345 16.18997,28.04181 -25.90007,14.95346 -16.9976,0.46632 -129.50061,74.76721 -8.90257,14.48718 -51.80028,29.9069 -16.99754,0.46632 -129.50061,74.76721 -8.90257,14.48718 -25.90011,14.95345 z"
       style="fill:#b955d3;fill-opacity:1;stroke:none" />
    <path
       style="fill:#b955d3;fill-opacity:1;stroke:none"
       d="m 240.96036,567.96822 14.95339,-25.90012 14.48713,-8.90262 74.76726,-129.50061 0.46632,-16.99754 29.90691,-51.80028 14.48718,-8.90262 74.7672,-129.50061 0.46633,-16.9976 14.95334,-25.90011 28.04182,16.18995 -14.95335,25.90011 -14.48718,8.90263 -74.76726,129.50061 -0.46632,16.99754 -29.9069,51.80028 -14.48718,8.90262 -74.76721,129.50061 -0.46632,16.99755 -14.9534,25.90016 z"
       id="path8073"
       inkscape:connector-curvature="0"
       sodipodi:nodetypes="ccccccccccccccccccccc" />
    <path
       sodipodi:nodetypes="ccccccccccccccccccccc"
       inkscape:connector-curvature="0"
       id="path8075"
       d="m 358.41887,608.11723 0,-29.90685 8.09492,-14.95345 0,-149.53447 -8.09492,-14.95344 0,-59.81381 8.09498,-14.9535 0,-149.53442 -8.09498,-14.95349 -5e-5,-29.90681 32.3799,0 6e-5,29.90681 -8.09498,14.95349 0,149.53446 8.09492,14.95346 0,59.81381 -8.09497,14.95351 0,149.5344 8.09492,14.95345 5e-5,29.9069 z"
       style="fill:#b955d3;fill-opacity:1;stroke:none" />
    <path
       style="fill:#b955d3;fill-opacity:1;stroke:none"
       d="m 480.21545,584.15812 -14.95345,-25.90011 -0.46632,-16.9975 -74.76721,-129.50066 -14.48712,-8.90262 -29.90691,-51.80028 -0.46632,-16.9976 -74.76721,-129.50055 -14.48718,-8.90268 -14.95345,-25.9 28.04182,-16.18996 14.95345,25.90001 0.46632,16.99765 74.76726,129.50061 14.48713,8.90262 29.9069,51.80028 0.46633,16.99759 74.7672,129.50062 14.48718,8.90256 14.95345,25.90012 z"
       id="path8077"
       inkscape:connector-curvature="0"
       sodipodi:nodetypes="ccccccccccccccccccccc" />
    <path
       sodipodi:nodetypes="ccccccccccccccccccccc"
       inkscape:connector-curvature="0"
       id="path8079"
       d="m 573.71483,502.51058 -25.90012,-14.95346 -8.90262,-14.48707 -129.50061,-74.76726 -16.99754,-0.46632 -51.80028,-29.9069 -8.90262,-14.48724 -129.50061,-74.76715 -16.9976,-0.46632 -25.90006,-14.95335 16.18996,-28.04181 25.90006,14.95329 8.90267,14.48728 129.50066,74.76716 16.99755,0.46632 51.80028,29.9069 8.90262,14.48724 129.50061,74.7672 16.99754,0.46633 25.90011,14.95339 z"
       style="fill:#b955d3;fill-opacity:1;stroke:none" />
  </g>
</svg>
